<svg width="1024" height="1024" viewBox="0 0 1024 1024" fill="none" xmlns="http://www.w3.org/2000/svg">
<g clip-path="url(#clip0_2582_1301)">
<rect y="104" width="873.873" height="224.07" rx="22" fill="#28A2DD"/>
<rect y="399.772" width="611.711" height="224.07" rx="22" fill="#29B0E3"/>
<rect y="695.545" width="873.873" height="224.07" rx="22" fill="#29C6E9"/>
<path fill-rule="evenodd" clip-rule="evenodd" d="M980.692 330.544C984.522 328.239 989.097 327.509 993.455 328.505C997.812 329.501 1001.62 332.146 1004.06 335.886L1021.18 361.99C1023.41 365.4 1024.36 369.488 1023.87 373.534C1023.38 377.58 1021.48 381.322 1018.5 384.1L1018.45 384.169L1018.21 384.394L1017.22 385.31L1013.33 389.027C991.809 409.905 970.938 431.444 950.75 453.613C912.769 495.38 867.666 550.043 837.309 603.081C828.838 617.879 808.145 621.06 795.871 608.284L683.762 491.801C682.155 490.131 680.901 488.156 680.073 485.991C679.245 483.827 678.861 481.518 678.943 479.202C679.026 476.886 679.573 474.611 680.552 472.51C681.531 470.41 682.922 468.528 684.644 466.977L718.527 436.412C721.505 433.728 725.323 432.161 729.328 431.982C733.333 431.802 737.276 433.02 740.482 435.427L797.686 478.317C887.045 390.203 937.715 356.388 980.692 330.544Z" fill="#296094"/>
</g>
<defs>
<clipPath id="clip0_2582_1301">
<rect width="1024" height="1024" fill="white"/>
</clipPath>
</defs>
</svg> 