<svg width="8051" height="1024" viewBox="0 0 8051 1024" fill="none" xmlns="http://www.w3.org/2000/svg">
<g clip-path="url(#clip0_2606_1732)">
<rect y="104" width="873.873" height="224.07" rx="22" fill="#28A2DD"/>
<rect y="399.772" width="611.711" height="224.07" rx="22" fill="#29B0E3"/>
<rect y="695.545" width="873.873" height="224.07" rx="22" fill="#29C6E9"/>
<path fill-rule="evenodd" clip-rule="evenodd" d="M980.692 330.544C984.522 328.239 989.096 327.509 993.454 328.505C997.812 329.501 1001.61 332.146 1004.06 335.885L1021.18 361.99C1023.41 365.4 1024.36 369.488 1023.87 373.534C1023.38 377.579 1021.48 381.322 1018.5 384.1L1018.45 384.169L1018.21 384.394L1017.22 385.31L1013.33 389.027C991.808 409.905 970.938 431.444 950.75 453.613C912.769 495.38 867.666 550.043 837.309 603.081C828.838 617.879 808.145 621.06 795.871 608.284L683.762 491.801C682.155 490.131 680.901 488.156 680.073 485.991C679.245 483.827 678.861 481.518 678.943 479.202C679.025 476.886 679.572 474.611 680.552 472.51C681.531 470.41 682.922 468.528 684.643 466.976L718.527 436.412C721.504 433.728 725.322 432.161 729.328 431.982C733.333 431.802 737.276 433.02 740.482 435.427L797.686 478.317C887.045 390.203 937.715 356.388 980.692 330.544Z" fill="#296094"/>
<path d="M1262.88 915V119.8H1490.24L1692.96 698.84L1894.56 119.8H2121.92V915H1951.68V399.8L1764.64 912.76H1619.04L1433.12 399.8V915H1262.88ZM2539.99 928.44C2478.76 928.44 2425.37 915.747 2379.83 890.36C2334.28 864.227 2298.81 827.64 2273.43 780.6C2248.04 733.56 2235.35 678.307 2235.35 614.84C2235.35 551.373 2248.04 496.493 2273.43 450.2C2298.81 403.16 2334.28 366.573 2379.83 340.44C2425.37 314.307 2478.76 301.24 2539.99 301.24C2601.21 301.24 2654.6 314.307 2700.15 340.44C2745.69 366.573 2781.16 403.16 2806.55 450.2C2831.93 496.493 2844.63 551.373 2844.63 614.84C2844.63 678.307 2831.93 733.56 2806.55 780.6C2781.16 827.64 2745.69 864.227 2700.15 890.36C2654.6 915.747 2601.21 928.44 2539.99 928.44ZM2539.99 799.64C2581.8 799.64 2614.28 783.587 2637.43 751.48C2660.57 718.627 2672.15 673.08 2672.15 614.84C2672.15 556.6 2660.57 511.427 2637.43 479.32C2614.28 446.467 2581.8 430.04 2539.99 430.04C2498.17 430.04 2465.69 446.467 2442.55 479.32C2419.4 511.427 2407.83 556.6 2407.83 614.84C2407.83 673.08 2419.4 718.627 2442.55 751.48C2465.69 783.587 2498.17 799.64 2539.99 799.64ZM3163.15 928.44C3112.38 928.44 3068.33 915.747 3030.99 890.36C2994.41 864.227 2966.03 828.013 2945.87 781.72C2926.46 734.68 2916.75 679.053 2916.75 614.84C2916.75 550.627 2926.83 495.373 2946.99 449.08C2967.15 402.04 2995.53 365.827 3032.11 340.44C3069.45 314.307 3113.13 301.24 3163.15 301.24C3205.71 301.24 3242.3 310.2 3272.91 328.12C3304.27 345.293 3327.79 369.187 3343.47 399.8V119.8H3511.47V915H3351.31L3347.95 826.52C3331.53 858.627 3306.89 883.64 3274.03 901.56C3241.93 919.48 3204.97 928.44 3163.15 928.44ZM3218.03 799.64C3244.91 799.64 3267.69 792.547 3286.35 778.36C3305.02 764.173 3319.21 743.64 3328.91 716.76C3338.62 689.133 3343.47 655.16 3343.47 614.84C3343.47 573.773 3338.62 539.8 3328.91 512.92C3319.21 485.293 3305.02 464.76 3286.35 451.32C3267.69 437.133 3244.91 430.04 3218.03 430.04C3178.46 430.04 3147.1 446.84 3123.95 480.44C3100.81 513.293 3089.23 558.093 3089.23 614.84C3089.23 670.84 3100.81 715.64 3123.95 749.24C3147.85 782.84 3179.21 799.64 3218.03 799.64ZM3918.06 928.44C3856.83 928.44 3803.45 915.747 3757.9 890.36C3713.1 864.227 3678.01 827.64 3652.62 780.6C3627.98 733.56 3615.66 678.307 3615.66 614.84C3615.66 551.373 3627.98 496.493 3652.62 450.2C3678.01 403.16 3713.1 366.573 3757.9 340.44C3802.7 314.307 3855.71 301.24 3916.94 301.24C3976.67 301.24 4028.57 314.307 4072.62 340.44C4116.67 366.573 4150.65 403.907 4174.54 452.44C4199.18 500.973 4211.5 558.84 4211.5 626.04V659.64H3789.26C3791.5 707.427 3804.19 742.893 3827.34 766.04C3851.23 789.187 3882.59 800.76 3921.42 800.76C3949.79 800.76 3973.31 794.787 3991.98 782.84C4011.39 770.893 4025.21 752.6 4033.42 727.96L4202.54 738.04C4186.86 797.773 4153.63 844.44 4102.86 878.04C4052.09 911.64 3990.49 928.44 3918.06 928.44ZM3789.26 556.6H4039.02C4036.78 512.547 4024.46 479.693 4002.06 458.04C3980.41 436.387 3952.03 425.56 3916.94 425.56C3881.85 425.56 3852.73 437.133 3829.58 460.28C3807.18 482.68 3793.74 514.787 3789.26 556.6ZM4477.6 915C4428.32 915 4389.86 902.68 4362.24 878.04C4334.61 853.4 4320.79 813.453 4320.79 758.2V119.8H4488.8V740.28C4488.8 758.2 4492.9 770.893 4501.12 778.36C4509.33 785.827 4521.28 789.56 4536.96 789.56H4577.28V915H4477.6ZM4619.25 915L4905.97 119.8H5107.57L5394.29 915H5217.33L5159.09 745.88H4853.33L4795.09 915H4619.25ZM4901.49 605.88H5112.05L5006.77 299L4901.49 605.88ZM5468.14 915V314.68H5627.18L5632.78 489.4L5620.46 486.04C5630.17 425.56 5647.34 381.88 5671.98 355C5696.62 328.12 5730.59 314.68 5773.9 314.68H5828.78V453.56H5773.9C5742.54 453.56 5716.78 457.667 5696.62 465.88C5676.46 474.093 5661.15 487.16 5650.7 505.08C5640.99 523 5636.14 547.267 5636.14 577.88V915H5468.14ZM6169 928.44C6107.77 928.44 6054.38 915.747 6008.84 890.36C5964.04 864.227 5928.94 827.64 5903.56 780.6C5878.92 733.56 5866.6 678.307 5866.6 614.84C5866.6 551.373 5878.92 496.493 5903.56 450.2C5928.94 403.16 5964.04 366.573 6008.84 340.44C6053.64 314.307 6106.65 301.24 6167.88 301.24C6227.61 301.24 6279.5 314.307 6323.56 340.44C6367.61 366.573 6401.58 403.907 6425.48 452.44C6450.12 500.973 6462.44 558.84 6462.44 626.04V659.64H6040.2C6042.44 707.427 6055.13 742.893 6078.28 766.04C6102.17 789.187 6133.53 800.76 6172.36 800.76C6200.73 800.76 6224.25 794.787 6242.92 782.84C6262.33 770.893 6276.14 752.6 6284.36 727.96L6453.48 738.04C6437.8 797.773 6404.57 844.44 6353.8 878.04C6303.02 911.64 6241.42 928.44 6169 928.44ZM6040.2 556.6H6289.96C6287.72 512.547 6275.4 479.693 6253 458.04C6231.34 436.387 6202.97 425.56 6167.88 425.56C6132.78 425.56 6103.66 437.133 6080.52 460.28C6058.12 482.68 6044.68 514.787 6040.2 556.6ZM6566.26 915V314.68H6717.46L6724.18 490.52L6702.9 484.92C6708.88 440.12 6720.82 404.28 6738.74 377.4C6757.41 350.52 6780.56 331.107 6808.18 319.16C6835.81 307.213 6866.05 301.24 6898.9 301.24C6942.21 301.24 6978.8 310.573 7008.66 329.24C7039.28 347.907 7062.42 374.413 7078.1 408.76C7094.53 442.36 7102.74 482.307 7102.74 528.6V915H6934.74V584.6C6934.74 552.493 6932.13 525.24 6926.9 502.84C6921.68 480.44 6912.34 463.64 6898.9 452.44C6885.46 440.493 6866.8 434.52 6842.9 434.52C6807.81 434.52 6780.93 447.587 6762.26 473.72C6743.6 499.107 6734.26 536.067 6734.26 584.6V915H6566.26ZM7414.81 928.44C7352.84 928.44 7302.07 914.253 7262.49 885.88C7223.67 856.76 7204.25 816.44 7204.25 764.92C7204.25 711.907 7220.68 671.213 7253.53 642.84C7287.13 613.72 7336.41 592.44 7401.37 579L7595.13 540.92C7595.13 502.093 7586.17 472.973 7568.25 453.56C7551.08 433.4 7526.07 423.32 7493.21 423.32C7461.11 423.32 7436.09 430.787 7418.17 445.72C7400.25 459.907 7388.68 481.187 7383.45 509.56L7214.33 501.72C7225.53 436.013 7255.03 386.36 7302.81 352.76C7351.35 318.413 7414.81 301.24 7493.21 301.24C7582.81 301.24 7650.01 322.52 7694.81 365.08C7740.36 407.64 7763.13 469.987 7763.13 552.12V757.08C7763.13 774.253 7765.75 785.827 7770.97 791.8C7776.95 797.027 7785.53 799.64 7796.73 799.64H7813.53V915C7808.31 916.493 7799.72 917.987 7787.77 919.48C7776.57 920.973 7765.37 921.72 7754.17 921.72C7730.28 921.72 7707.88 917.613 7686.97 909.4C7666.81 901.187 7650.39 887.373 7637.69 867.96C7625 847.8 7618.65 819.427 7618.65 782.84L7633.21 794.04C7625.75 820.92 7612.31 844.44 7592.89 864.6C7574.23 884.76 7549.59 900.44 7518.97 911.64C7489.11 922.84 7454.39 928.44 7414.81 928.44ZM7455.13 813.08C7482.76 813.08 7507.03 807.853 7527.93 797.4C7548.84 786.2 7565.27 770.147 7577.21 749.24C7589.16 728.333 7595.13 703.693 7595.13 675.32V646.2L7458.49 675.32C7431.61 680.547 7411.08 689.507 7396.89 702.2C7383.45 714.147 7376.73 729.827 7376.73 749.24C7376.73 769.4 7383.45 785.08 7396.89 796.28C7410.33 807.48 7429.75 813.08 7455.13 813.08Z" fill="#296094"/>
</g>
<defs>
<clipPath id="clip0_2606_1732">
<rect width="8051" height="1024" fill="white"/>
</clipPath>
</defs>
</svg>
