<svg width="8051" height="1024" viewBox="0 0 8051 1024" fill="none" xmlns="http://www.w3.org/2000/svg">
<g clip-path="url(#clip0_2674_2)">
<rect y="104" width="873.873" height="224.07" rx="22" fill="#28A2DD"/>
<rect y="399.772" width="611.711" height="224.07" rx="22" fill="#29B0E3"/>
<rect y="695.545" width="873.873" height="224.07" rx="22" fill="#29C6E9"/>
<path fill-rule="evenodd" clip-rule="evenodd" d="M980.692 330.544C984.522 328.239 989.096 327.508 993.454 328.504C997.812 329.5 1001.61 332.146 1004.06 335.885L1021.18 361.989C1023.41 365.4 1024.36 369.488 1023.87 373.534C1023.38 377.579 1021.48 381.322 1018.5 384.1L1018.45 384.169L1018.21 384.394L1017.22 385.31L1013.33 389.027C991.808 409.905 970.938 431.444 950.75 453.613C912.769 495.38 867.666 550.043 837.309 603.081C828.838 617.879 808.145 621.06 795.871 608.284L683.762 491.801C682.155 490.131 680.901 488.155 680.073 485.991C679.245 483.827 678.861 481.518 678.943 479.202C679.025 476.886 679.572 474.611 680.552 472.51C681.531 470.41 682.922 468.528 684.643 466.976L718.527 436.412C721.504 433.728 725.322 432.161 729.328 431.982C733.333 431.802 737.276 433.02 740.482 435.427L797.686 478.317C887.045 390.203 937.715 356.388 980.692 330.544Z" fill="#296094"/>
<path d="M1256.16 909V118.28H1381.6L1692.96 603.24H1629.12L1939.36 118.28H2065.92V909H1890.08V415.08L1921.44 422.92L1718.72 738.76H1602.24L1400.64 422.92L1430.88 415.08V909H1256.16ZM2463.97 921.32C2407.97 921.32 2357.19 909 2311.65 884.36C2266.85 858.973 2231.38 824.627 2205.25 781.32C2179.11 738.013 2166.05 689.48 2166.05 635.72C2166.05 581.96 2179.11 533.8 2205.25 491.24C2231.38 448.68 2266.85 415.08 2311.65 390.44C2356.45 365.053 2407.22 352.36 2463.97 352.36C2520.71 352.36 2571.49 364.68 2616.29 389.32C2661.09 413.96 2696.55 447.933 2722.69 491.24C2748.82 533.8 2761.89 581.96 2761.89 635.72C2761.89 689.48 2748.82 738.013 2722.69 781.32C2696.55 824.627 2661.09 858.973 2616.29 884.36C2571.49 909 2520.71 921.32 2463.97 921.32ZM2463.97 765.64C2488.61 765.64 2510.26 760.413 2528.93 749.96C2547.59 738.76 2561.78 723.453 2571.49 704.04C2581.94 683.88 2587.17 661.107 2587.17 635.72C2587.17 610.333 2581.94 588.307 2571.49 569.64C2561.03 550.227 2546.47 535.293 2527.81 524.84C2509.89 513.64 2488.61 508.04 2463.97 508.04C2440.07 508.04 2418.79 513.64 2400.13 524.84C2381.46 535.293 2366.9 550.227 2356.45 569.64C2345.99 589.053 2340.77 611.453 2340.77 636.84C2340.77 661.48 2345.99 683.88 2356.45 704.04C2366.9 723.453 2381.46 738.76 2400.13 749.96C2418.79 760.413 2440.07 765.64 2463.97 765.64ZM3079.04 920.2C3027.52 920.2 2981.6 907.88 2941.28 883.24C2901.71 858.6 2870.35 825 2847.2 782.44C2824.8 739.88 2813.6 691.347 2813.6 636.84C2813.6 582.333 2824.8 533.8 2847.2 491.24C2870.35 448.68 2901.71 415.08 2941.28 390.44C2981.6 365.8 3027.52 353.48 3079.04 353.48C3116.37 353.48 3149.97 360.573 3179.84 374.76C3210.45 388.947 3235.47 408.733 3254.88 434.12C3275.04 458.76 3286.24 487.133 3288.48 519.24V748.84C3286.24 780.947 3275.41 810.067 3256 836.2C3236.59 861.587 3211.57 882.12 3180.96 897.8C3150.35 912.733 3116.37 920.2 3079.04 920.2ZM3109.28 765.64C3133.92 765.64 3155.2 760.413 3173.12 749.96C3191.04 738.76 3205.23 723.453 3215.68 704.04C3226.13 684.627 3231.36 662.227 3231.36 636.84C3231.36 611.453 3226.13 589.427 3215.68 570.76C3205.97 551.347 3191.79 536.04 3173.12 524.84C3155.2 513.64 3134.29 508.04 3110.4 508.04C3086.51 508.04 3065.23 513.64 3046.56 524.84C3028.64 536.04 3014.08 551.347 3002.88 570.76C2992.43 590.173 2987.2 612.2 2987.2 636.84C2987.2 661.48 2992.43 683.507 3002.88 702.92C3013.33 722.333 3027.89 737.64 3046.56 748.84C3065.23 760.04 3086.13 765.64 3109.28 765.64ZM3392.64 909H3224.64V762.28L3250.4 630.12L3221.28 497.96V95.88H3392.64V909ZM3782.09 921.32C3723.11 921.32 3670.47 909.373 3624.17 885.48C3578.63 860.84 3542.79 826.867 3516.65 783.56C3490.52 740.253 3477.45 691.347 3477.45 636.84C3477.45 582.333 3490.15 533.8 3515.53 491.24C3541.67 447.933 3576.76 413.96 3620.81 389.32C3664.87 364.68 3714.52 352.36 3769.77 352.36C3823.53 352.36 3870.95 363.933 3912.01 387.08C3953.08 410.227 3985.19 442.333 4008.33 483.4C4032.23 524.467 4044.17 571.507 4044.17 624.52C4044.17 634.227 4043.43 644.68 4041.93 655.88C4041.19 666.333 4039.32 678.653 4036.33 692.84L3567.05 693.96V576.36L3963.53 575.24L3889.61 624.52C3888.87 593.16 3884.01 567.4 3875.05 547.24C3866.09 526.333 3852.65 510.653 3834.73 500.2C3817.56 489 3796.28 483.4 3770.89 483.4C3744.01 483.4 3720.49 489.747 3700.33 502.44C3680.92 514.387 3665.61 531.56 3654.41 553.96C3643.96 576.36 3638.73 603.613 3638.73 635.72C3638.73 667.827 3644.33 695.453 3655.53 718.6C3667.48 741 3683.91 758.547 3704.81 771.24C3726.47 783.187 3751.85 789.16 3780.97 789.16C3807.85 789.16 3832.12 784.68 3853.77 775.72C3875.43 766.013 3894.47 751.827 3910.89 733.16L4004.97 827.24C3978.09 858.6 3945.61 882.12 3907.53 897.8C3869.45 913.48 3827.64 921.32 3782.09 921.32ZM4126.89 909V95.88H4298.25V909H4126.89ZM4375.24 909L4688.84 118.28H4847.88L5158.12 909H4972.2L4734.76 252.68H4798.6L4557.8 909H4375.24ZM4553.32 765.64V622.28H4984.52V765.64H4553.32ZM5234.86 909V364.68H5406.22V909H5234.86ZM5406.22 609.96L5334.54 553.96C5348.72 490.493 5372.62 441.213 5406.22 406.12C5439.82 371.027 5486.48 353.48 5546.22 353.48C5572.35 353.48 5595.12 357.587 5614.54 365.8C5634.7 373.267 5652.24 385.213 5667.18 401.64L5565.26 530.44C5557.79 522.227 5548.46 515.88 5537.26 511.4C5526.06 506.92 5513.36 504.68 5499.18 504.68C5470.8 504.68 5448.03 513.64 5430.86 531.56C5414.43 548.733 5406.22 574.867 5406.22 609.96ZM5966.31 921.32C5907.32 921.32 5854.68 909.373 5808.39 885.48C5762.84 860.84 5727 826.867 5700.87 783.56C5674.74 740.253 5661.67 691.347 5661.67 636.84C5661.67 582.333 5674.36 533.8 5699.75 491.24C5725.88 447.933 5760.98 413.96 5805.03 389.32C5849.08 364.68 5898.74 352.36 5953.99 352.36C6007.75 352.36 6055.16 363.933 6096.23 387.08C6137.3 410.227 6169.4 442.333 6192.55 483.4C6216.44 524.467 6228.39 571.507 6228.39 624.52C6228.39 634.227 6227.64 644.68 6226.15 655.88C6225.4 666.333 6223.54 678.653 6220.55 692.84L5751.27 693.96V576.36L6147.75 575.24L6073.83 624.52C6073.08 593.16 6068.23 567.4 6059.27 547.24C6050.31 526.333 6036.87 510.653 6018.95 500.2C6001.78 489 5980.5 483.4 5955.11 483.4C5928.23 483.4 5904.71 489.747 5884.55 502.44C5865.14 514.387 5849.83 531.56 5838.63 553.96C5828.18 576.36 5822.95 603.613 5822.95 635.72C5822.95 667.827 5828.55 695.453 5839.75 718.6C5851.7 741 5868.12 758.547 5889.03 771.24C5910.68 783.187 5936.07 789.16 5965.19 789.16C5992.07 789.16 6016.34 784.68 6037.99 775.72C6059.64 766.013 6078.68 751.827 6095.11 733.16L6189.19 827.24C6162.31 858.6 6129.83 882.12 6091.75 897.8C6053.67 913.48 6011.86 921.32 5966.31 921.32ZM6670.63 909V598.76C6670.63 570.387 6661.67 547.613 6643.75 530.44C6626.57 512.52 6604.55 503.56 6577.67 503.56C6559 503.56 6542.57 507.667 6528.39 515.88C6514.2 523.347 6503 534.547 6494.79 549.48C6486.57 563.667 6482.47 580.093 6482.47 598.76L6416.39 566.28C6416.39 523.72 6425.72 486.387 6444.39 454.28C6463.05 422.173 6488.81 397.533 6521.67 380.36C6555.27 362.44 6592.97 353.48 6634.79 353.48C6675.11 353.48 6710.57 363.187 6741.19 382.6C6772.55 401.267 6797.19 426.28 6815.11 457.64C6833.03 489 6841.98 523.347 6841.98 560.68V909H6670.63ZM6311.11 909V364.68H6482.47V909H6311.11ZM7179.4 920.2C7129.38 920.2 7084.58 907.88 7045 883.24C7006.18 858.6 6975.19 825 6952.04 782.44C6929.64 739.88 6918.44 691.347 6918.44 636.84C6918.44 582.333 6929.64 533.8 6952.04 491.24C6975.19 448.68 7006.18 415.08 7045 390.44C7084.58 365.8 7129.38 353.48 7179.4 353.48C7215.99 353.48 7248.84 360.573 7277.96 374.76C7307.83 388.947 7332.1 408.733 7350.76 434.12C7369.43 458.76 7379.88 487.133 7382.12 519.24V754.44C7379.88 786.547 7369.43 815.293 7350.76 840.68C7332.84 865.32 7308.95 884.733 7279.08 898.92C7249.22 913.107 7215.99 920.2 7179.4 920.2ZM7214.12 765.64C7250.71 765.64 7280.2 753.693 7302.6 729.8C7325 705.16 7336.2 674.173 7336.2 636.84C7336.2 611.453 7330.98 589.053 7320.52 569.64C7310.82 550.227 7296.63 535.293 7277.96 524.84C7260.04 513.64 7239.14 508.04 7215.24 508.04C7191.35 508.04 7170.07 513.64 7151.4 524.84C7133.48 535.293 7118.92 550.227 7107.72 569.64C7097.27 589.053 7092.04 611.453 7092.04 636.84C7092.04 661.48 7097.27 683.507 7107.72 702.92C7118.18 722.333 7132.74 737.64 7151.4 748.84C7170.07 760.04 7190.98 765.64 7214.12 765.64ZM7329.48 909V762.28L7355.24 630.12L7329.48 497.96V364.68H7497.48V909H7329.48Z" fill="#296094"/>
</g>
<defs>
<clipPath id="clip0_2674_2">
<rect width="8051" height="1024" fill="white"/>
</clipPath>
</defs>
</svg>
